# xmcd
#
# Track frame offsets:
#	150
#	12380
#	27157
#	42525
#	59487
#	76525
#	95032
#	110042
#	124197
#	139797
#	157995
#	173175
#	184477
#	198855
#	218727
#
# Disc length: 3099 seconds
#
# Revision: 1
# Processed by: cddbd v1.5.1PL2 Copyright (c) Steve Scherf et al.
# Submitted via: audiograbber 1.83.01
#
DISCID=d10c190f
DTITLE=Music Maestro  Top Country Hits Of The 90's Vol XLVII - Mm6183
DYEAR=1900
DGENRE=Karaoke
TTITLE0=Alan Jackson - Little Bitty
TTITLE1=Burnin' Daylight - Love Worth Fighting For
TTITLE2=Deana Carter - We Danced Anyway
TTITLE3=John Berry - She's Taken A Shine
TTITLE4=Stephanie Bentley - Dead Ringer
TTITLE5=James Bonamy - All I Do Is Love Her
TTITLE6=Sammy Kershaw - Politics Religion And Her
TTITLE7=Neal Mccoy - That Woman Of Mine
TTITLE8=Kenny Chesney - When I Close My Eyes
TTITLE9=Shania Twain - God Bless The Child
TTITLE10=Mavericks - I Don't Care If You Love Me Anymore
TTITLE11=Rhett Atkins - Every Cowboy's Dream
TTITLE12=Diamond Rio - Holdin'
TTITLE13=Wynonna Judd - Somebody To Love You
TTITLE14=Trisha Yearwood - Everybody Knows
EXTD=
EXTT0=
EXTT1=
EXTT2=
EXTT3=
EXTT4=
EXTT5=
EXTT6=
EXTT7=
EXTT8=
EXTT9=
EXTT10=
EXTT11=
EXTT12=
EXTT13=
EXTT14=
PLAYORDER=
